<?xml version="1.0" encoding="utf-8"?>
<svg viewBox="0 0 500 500" xmlns="http://www.w3.org/2000/svg">
  <path fill="#ffffff" opacity="1.000000" stroke="none" d="M 111.598 411.132 C 100.02 399.631 88.547 388.357 77.215 376.945 C 71.124 370.811 70.999 364.122 76.936 357.865 C 83.653 350.789 90.595 343.925 97.551 337.081 C 99.233 335.427 99.54 334.152 98.463 331.929 C 92.753 320.141 88.06 307.935 84.287 295.392 C 83.656 293.298 82.598 292.617 80.489 292.636 C 71.504 292.718 62.516 292.667 53.529 292.662 C 44.613 292.658 39.814 288.192 39.774 279.296 C 39.666 255.776 39.666 232.255 39.778 208.736 C 39.814 200.679 45.234 195.302 53.163 195.584 C 62.35 195.91 71.564 195.363 80.767 195.283 C 83.236 195.262 84.493 194.438 85.123 191.84 C 88.092 179.606 93.459 168.245 98.445 156.764 C 99.401 154.558 99.23 153.207 97.514 151.571 C 91.014 145.37 84.622 139.055 78.212 132.761 C 76.309 130.891 74.582 128.898 73.537 126.365 C 71.583 121.627 72.398 117.456 75.953 113.835 C 87.374 102.199 98.812 90.578 110.262 78.97 C 115.637 73.52 121.019 68.076 126.465 62.695 C 132.635 56.597 140.272 56.492 146.468 62.503 C 153.631 69.456 160.697 76.507 167.75 83.57 C 169.264 85.085 170.634 85.678 172.715 84.538 C 183.543 78.598 194.952 74.004 206.777 70.492 C 209.566 69.663 210.3 68.178 210.265 65.447 C 210.144 56.241 210.227 47.031 210.288 37.822 C 210.343 29.365 214.338 25.437 222.668 25.207 C 245.407 24.578 268.15 24.991 290.891 24.87 C 301.041 24.817 304.991 28.828 305.005 38.946 C 305.02 47.821 305.079 56.698 305 65.572 C 304.981 67.726 305.506 69.129 307.711 69.851 C 319.963 73.853 331.838 78.763 343.169 84.933 C 345.07 85.968 346.3 85.162 347.543 83.908 C 353.632 77.762 359.85 71.737 365.766 65.428 C 370.057 60.852 374.561 57.385 381.333 58.536 C 384.645 59.099 386.922 61.237 389.087 63.381 C 405.793 79.934 422.45 96.537 439.03 113.217 C 444.169 118.385 444.173 125.515 439.038 130.768 C 432.994 136.951 426.7 142.892 420.512 148.935 C 420.195 149.243 419.839 149.514 419.522 149.824 C 415.5 153.735 415.456 153.757 417.774 158.856 C 422.781 169.867 427.16 181.12 430.634 192.703 C 431.327 195.01 432.715 195.216 434.606 195.217 C 443.369 195.221 452.135 195.335 460.9 195.273 C 470.453 195.207 475.414 199.906 475.423 209.4 C 475.444 232.477 475.432 255.555 475.393 278.631 C 475.378 287.729 470.55 292.564 461.398 292.642 C 452.855 292.714 444.309 292.773 435.77 292.613 C 432.96 292.559 431.65 293.473 430.864 296.211 C 427.242 308.807 422.563 321.02 416.656 332.728 C 415.523 334.976 416.373 336.197 417.811 337.607 C 424.858 344.52 432.044 351.29 438.789 358.506 C 442.345 362.308 443.884 366.504 442.104 371.57 C 441.234 374.048 439.381 375.881 437.582 377.666 C 421.44 393.68 405.267 409.662 389.078 425.625 C 382.42 432.19 375.102 432.351 368.215 425.973 C 361.46 419.721 355.205 412.947 348.325 406.815 C 346.537 405.222 345.165 405.11 343.06 406.252 C 331.834 412.349 320.158 417.465 308.028 421.489 C 305.765 422.24 304.918 423.381 304.95 425.796 C 305.074 435.225 305.005 444.656 304.997 454.087 C 304.991 463.055 301.007 467.075 291.953 467.088 C 268.654 467.12 245.355 467.115 222.056 467.096 C 215.372 467.089 211.234 463.351 210.709 456.667 C 209.927 446.7 210.375 436.708 210.368 426.729 C 210.367 423.524 209.326 422.103 206.241 421.101 C 194.837 417.394 183.743 412.867 173.362 406.8 C 170.601 405.186 168.571 404.972 166.101 407.437 C 159.511 414.011 152.841 420.523 145.901 426.722 C 139.652 432.305 132.718 431.974 126.583 426.122 C 121.53 421.301 116.695 416.25 111.598 411.132 M 404.502 287.31 C 406.093 281.313 407.452 275.266 408.472 269.146 C 409.427 263.411 410.346 262.572 416.311 262.533 C 424.077 262.48 431.845 262.502 439.611 262.43 C 444.086 262.388 444.683 261.846 444.706 257.462 C 444.754 248.483 444.715 239.502 444.662 230.522 C 444.638 226.354 443.714 225.463 439.531 225.449 C 431.099 225.42 422.667 225.397 414.235 225.43 C 411.107 225.444 409.234 224.181 408.772 220.942 C 408.037 215.788 406.783 210.763 405.414 205.727 C 400.35 187.122 392.33 169.957 381.087 154.312 C 377.38 149.154 377.226 149.2 381.81 144.564 C 387.658 138.648 393.604 132.831 399.449 126.912 C 402.658 123.664 402.713 122.339 399.607 119.131 C 393.67 112.995 387.609 106.979 381.627 100.887 C 377.885 97.074 377.122 97.148 373.319 100.956 C 366.821 107.466 360.194 113.845 353.643 120.304 C 351.645 122.272 349.679 122.352 347.442 120.662 C 345.145 118.923 342.772 117.271 340.349 115.714 C 322.218 104.066 302.463 96.53 281.351 92.405 C 276.945 91.545 276.034 90.308 276.017 85.834 C 275.983 77.626 275.928 69.414 276.045 61.205 C 276.089 58.038 274.801 56.846 271.69 56.876 C 262.371 56.967 253.05 56.875 243.732 56.908 C 239.988 56.922 239.218 57.681 239.202 61.376 C 239.166 69.364 239.161 77.353 239.23 85.34 C 239.273 90.246 237.663 92.102 232.782 92.779 C 229.52 93.23 226.223 93.673 223.057 94.546 C 203.337 99.982 184.866 108.137 168.183 120.12 C 164.501 122.768 163.874 122.72 160.555 119.392 C 154.211 113.029 147.927 106.609 141.644 100.187 C 138.844 97.323 137.47 97.105 134.677 99.831 C 128.163 106.179 121.713 112.597 115.36 119.105 C 112.399 122.137 112.45 123.671 115.456 126.722 C 121.217 132.566 127.182 138.211 132.902 144.095 C 138.573 149.926 138.588 148.134 133.708 155.337 C 120.429 174.936 110.911 196.104 107.212 219.654 C 106.542 223.914 104.9 225.444 100.632 225.458 C 92.2 225.483 83.768 225.435 75.336 225.491 C 71.544 225.515 70.649 226.468 70.641 230.248 C 70.62 239.235 70.631 248.221 70.645 257.208 C 70.654 261.918 71.538 262.843 76.257 262.866 C 84.245 262.906 92.232 262.871 100.221 262.885 C 105.189 262.896 106.484 263.968 107.086 268.936 C 107.872 275.438 109.542 281.749 111.296 288.014 C 116.235 305.677 124.279 321.913 134.489 337.113 C 137.165 341.096 137.148 341.309 133.744 344.67 C 127.987 350.353 122.145 355.953 116.356 361.607 C 112.151 365.712 112.167 366.959 116.327 371.091 C 122.149 376.876 128.037 382.597 133.753 388.487 C 137.496 392.343 138.542 392.481 142.257 388.514 C 148.175 382.199 154.334 376.129 160.598 370.157 C 162.922 367.941 165.057 367.704 167.585 369.838 C 173.036 374.441 179.253 377.916 185.442 381.366 C 200.268 389.633 216.068 395.265 232.78 398.329 C 238.421 399.363 239.135 400.302 239.14 406.031 C 239.149 413.909 239.149 421.787 239.159 429.664 C 239.166 434.536 239.501 434.885 244.518 434.899 C 253.505 434.922 262.493 434.917 271.479 434.908 C 275.915 434.906 276.061 434.733 276.05 430.137 C 276.033 421.816 275.983 413.494 276.026 405.174 C 276.048 401.118 277.377 399.603 281.285 398.739 C 284.849 397.951 288.438 397.254 291.972 396.342 C 311.625 391.276 329.644 382.721 346.155 370.926 C 351.583 367.047 352.06 367.118 356.788 371.814 C 362.769 377.753 368.72 383.728 374.529 389.835 C 376.645 392.056 378.25 392.042 380.272 389.86 C 386.756 382.858 393.539 376.152 400.407 369.524 C 403.096 366.93 403.085 365.795 400.442 363.158 C 394.005 356.729 387.564 350.302 380.967 344.042 C 378.705 341.895 378.347 340.257 380.262 337.579 C 391.121 322.383 399.103 305.755 404.502 287.31 Z" style="" transform="matrix(0.9999999999999999, 0, 0, 0.9999999999999999, 0, 0)"/>
  <path fill="#ffffff" opacity="1.000000" stroke="none" d="M 268.452 118.385 C 297.386 120.942 321.95 132.611 343.077 151.884 C 357.392 164.943 368.374 180.36 375.359 198.469 C 380.191 210.999 383.589 223.863 384.432 237.407 C 385.895 260.886 381.181 283.015 370.392 303.784 C 362.441 319.089 351.369 331.947 338.192 343.119 C 324.789 354.483 309.799 362.813 292.996 367.723 C 277.109 372.367 260.839 373.613 244.347 372.001 C 229.872 370.586 216.086 366.808 202.961 360.514 C 188.986 353.814 177.058 344.515 166.442 333.245 C 154.714 320.795 145.803 306.658 139.646 290.798 C 135.141 279.189 132.326 267.125 131.484 254.659 C 129.017 218.143 140.363 186.331 164.719 159.262 C 184.147 137.671 208.542 124.828 237.124 119.66 C 247.469 117.791 257.767 117.306 268.452 118.385 M 165.189 230.316 C 162.689 243.399 163.439 256.476 166.823 269.181 C 174.022 296.202 190.491 316.227 215.001 329.461 C 232.068 338.675 250.386 341.718 269.646 339.001 C 291.669 335.893 310.212 325.954 325.589 310.133 C 336.191 299.226 343.456 286.286 347.798 271.631 C 352.977 254.149 353.106 236.766 347.864 219.309 C 341.717 198.841 329.741 182.388 312.728 169.776 C 287.621 151.161 259.957 145.981 229.792 155.165 C 210.508 161.036 195.395 172.573 183.359 188.459 C 174.031 200.769 167.897 214.494 165.189 230.316 Z" style="" transform="matrix(0.9999999999999999, 0, 0, 0.9999999999999999, 0, 0)"/>
  <path fill="#ffffff" opacity="1.000000" stroke="none" d="M 309.874 205.304 C 316.229 207.64 321.106 211.281 323.005 217.793 C 325.462 226.215 322.133 232.797 316.196 238.638 C 298.821 255.72 281.287 272.654 264.716 290.529 C 257.529 298.281 244.635 299.223 236.138 290.447 C 225.427 279.384 213.984 269.031 202.977 258.251 C 199.22 254.57 194.959 251.285 193.166 245.908 C 190.678 238.447 193.372 228.69 199.346 224.642 C 206.93 219.504 215.729 219.794 222.32 225.879 C 230.706 233.622 238.892 241.588 247.014 249.609 C 249.226 251.793 250.719 252.089 253.007 249.718 C 265.401 236.872 277.94 224.167 290.385 211.367 C 295.73 205.87 301.957 203.372 309.874 205.304 Z" style="" transform="matrix(0.9999999999999999, 0, 0, 0.9999999999999999, 0, 0)"/>
</svg>